<svg xmlns="http://www.w3.org/2000/svg" xmlns:xlink="http://www.w3.org/1999/xlink"><symbol id="footer-logo"><path d="M6.127 10.695h-1.87l-.755 3.234H1.255l.756-3.234H.457l.462-2.037h1.575l.525-2.226H1.507l.462-2.037h1.533l.735-3.024h2.226l-.714 3.024h1.869l.735-3.024h2.226l-.714 3.024h1.512l-.525 2.037h-1.47l-.525 2.226h1.449l-.504 2.037H8.374l-.756 3.234H5.37l.756-3.234ZM4.74 8.658H6.61l.525-2.226h-1.87l-.524 2.226Zm13.322.273.378 2.499h.105l.42-2.52L21.78.3h3.024l-5.46 14.805h-2.058L11.784.3h3.339l2.94 8.631ZM26.16.3h2.877V15H26.16V.3Zm12.036 10.752c0-.448-.168-.812-.504-1.092-.322-.28-.735-.532-1.24-.756a26.28 26.28 0 0 0-1.616-.714 9.575 9.575 0 0 1-1.617-.903 4.949 4.949 0 0 1-1.24-1.344c-.321-.532-.482-1.211-.482-2.037 0-.714.119-1.33.357-1.848a3.513 3.513 0 0 1 1.008-1.323c.448-.35.973-.609 1.575-.777a7.495 7.495 0 0 1 2.016-.252c.854 0 1.659.077 2.415.231.756.14 1.379.35 1.869.63l-.903 2.415c-.308-.196-.77-.371-1.386-.525a7.56 7.56 0 0 0-1.995-.252c-.672 0-1.19.133-1.554.399-.35.266-.525.623-.525 1.071 0 .42.16.77.483 1.05.336.28.749.539 1.239.777.504.238 1.043.483 1.617.735.588.252 1.127.56 1.617.924.504.35.917.791 1.239 1.323.336.518.504 1.169.504 1.953s-.133 1.463-.4 2.037a3.719 3.719 0 0 1-1.091 1.407c-.462.378-1.03.658-1.701.84a8.182 8.182 0 0 1-2.184.273c-1.05 0-1.974-.098-2.772-.294-.798-.196-1.386-.392-1.764-.588l.924-2.457c.154.084.35.175.588.273.252.098.532.189.84.273.308.084.63.154.966.21.35.056.707.084 1.07.084.855 0 1.506-.14 1.954-.42.462-.294.693-.735.693-1.323ZM43.283.3h2.877V15h-2.877V.3Zm16.132 2.562H55.13V15h-2.877V2.862h-4.305V.3h11.466v2.562Zm7.84 8.19c0-.448-.168-.812-.504-1.092-.322-.28-.735-.532-1.239-.756a26.28 26.28 0 0 0-1.617-.714 9.575 9.575 0 0 1-1.617-.903 4.947 4.947 0 0 1-1.239-1.344c-.322-.532-.483-1.211-.483-2.037 0-.714.12-1.33.357-1.848a3.513 3.513 0 0 1 1.008-1.323c.448-.35.973-.609 1.575-.777a7.495 7.495 0 0 1 2.016-.252c.854 0 1.66.077 2.415.231.756.14 1.38.35 1.87.63l-.904 2.415c-.308-.196-.77-.371-1.386-.525a7.56 7.56 0 0 0-1.995-.252c-.672 0-1.19.133-1.554.399-.35.266-.525.623-.525 1.071 0 .42.161.77.483 1.05.336.28.75.539 1.24.777.503.238 1.042.483 1.616.735.588.252 1.127.56 1.617.924.504.35.917.791 1.24 1.323.335.518.503 1.169.503 1.953S70 12.2 69.733 12.774a3.719 3.719 0 0 1-1.092 1.407c-.462.378-1.029.658-1.7.84a8.182 8.182 0 0 1-2.185.273c-1.05 0-1.974-.098-2.772-.294-.798-.196-1.386-.392-1.764-.588l.924-2.457c.154.084.35.175.588.273.252.098.532.189.84.273.308.084.63.154.966.21.35.056.707.084 1.071.084.854 0 1.505-.14 1.953-.42.462-.294.693-.735.693-1.323ZM72.05.3h8.715v2.562h-5.838v3.423h5.313v2.562h-5.313v3.591h5.943V15h-8.82V.3Zm10.972 0c.294-.042.623-.077.987-.105a30.255 30.255 0 0 1 2.289-.084A27.56 27.56 0 0 1 87.305.09c1.302 0 2.415.182 3.339.546.924.364 1.673.875 2.247 1.533.574.658.994 1.442 1.26 2.352.266.91.399 1.911.399 3.003 0 .994-.126 1.953-.378 2.877a6.51 6.51 0 0 1-1.26 2.457c-.588.714-1.365 1.288-2.331 1.722-.952.434-2.135.651-3.55.651-.223 0-.524-.007-.902-.021a38.12 38.12 0 0 1-1.155-.063c-.392-.014-.77-.035-1.134-.063a7.843 7.843 0 0 1-.82-.063V.3Zm4.515 2.352c-.308 0-.623.007-.945.021a5.638 5.638 0 0 0-.693.063v9.849c.056.014.147.028.273.042.14 0 .287.007.44.021.155 0 .302.007.442.021h.315c.812 0 1.484-.14 2.016-.42a3.42 3.42 0 0 0 1.28-1.155 4.498 4.498 0 0 0 .673-1.638c.126-.63.189-1.274.189-1.932 0-.574-.056-1.148-.168-1.722a4.234 4.234 0 0 0-.63-1.575 3.4 3.4 0 0 0-1.218-1.134c-.518-.294-1.176-.441-1.974-.441Zm8.62 4.998c0-2.45.538-4.333 1.616-5.649C98.85.671 100.39.006 102.392.006c1.05 0 1.967.182 2.751.546a5.182 5.182 0 0 1 1.953 1.554c.518.672.903 1.477 1.155 2.415s.378 1.981.378 3.129c0 2.45-.546 4.34-1.638 5.67-1.078 1.316-2.611 1.974-4.599 1.974-1.064 0-1.988-.182-2.772-.546a5.182 5.182 0 0 1-1.953-1.554c-.504-.672-.882-1.477-1.134-2.415-.252-.938-.378-1.981-.378-3.129Zm3.023 0c0 .742.063 1.428.19 2.058.125.616.314 1.148.566 1.596.266.448.602.798 1.008 1.05s.889.378 1.449.378c1.022 0 1.813-.399 2.373-1.197.56-.798.84-2.093.84-3.885 0-.714-.063-1.379-.189-1.995a5.361 5.361 0 0 0-.546-1.617 2.813 2.813 0 0 0-.987-1.071c-.406-.266-.903-.399-1.491-.399-1.022 0-1.813.413-2.373 1.239-.56.812-.84 2.093-.84 3.843Zm15.161-.315-1.155-2.31h-.105l.336 2.31V15h-2.73V.195h2.1l5.565 7.833 1.113 2.247h.105l-.336-2.247V.3h2.73v14.805h-2.1l-5.523-7.77Zm17.393 4.41h-4.515L126.105 15h-2.877L128.52.195h2.121L135.933 15h-3.024l-1.176-3.255Zm-3.78-2.31h3.15l-1.092-3.276-.441-2.31h-.105l-.441 2.331-1.071 3.255Z"/></symbol><symbol id="html-academy-logo"><path d="M14.65.45h-.1l-13.5 1.4v24.7l13.5 8 13.4-8V1.85L14.65.45Zm11.4 12.1-11.5-6.8v-.1h-.1l-.1-.1v.1l-11.4 6.9v-9l11.5-1.2 11.6 1.2v9Zm-11.6-5.3 11.5 6.7-4.5 2.6-7.1-4.2v1.4l5.9 3.5-.9.5-5-3v1.4l3.8 2.3-.8.5-3-1.8v1.4l1.9 1.1-1.8 1.1-11.4-6.7 11.4-6.8Zm-11.5 8.3 11.4 6.8v1l-7.9-4.7v1.4l8 4.8v1.1l-8-4.7v1.4l8 4.8 8.1-4.9v-5.2l3.4-2v10l-11.5 6.9-11.5-6.8v-9.9Z"/></symbol><symbol id="telegram"><path d="m22.44 4.622-3.17 14.944c-.239 1.055-.862 1.317-1.748.82l-4.828-3.558-2.33 2.242c-.258.258-.473.473-.97.473l.347-4.917 8.948-8.086c.39-.346-.084-.54-.604-.192L7.022 13.314 2.26 11.823c-1.036-.323-1.055-1.036.216-1.533l18.627-7.177c.863-.323 1.617.192 1.336 1.51Z"/></symbol><symbol id="vk"><path fill-rule="evenodd" clip-rule="evenodd" d="M23.45.948c.166-.546 0-.948-.795-.948H20.03c-.668 0-.976.347-1.143.73 0 0-1.335 3.196-3.226 5.272-.612.602-.89.793-1.224.793-.167 0-.418-.191-.418-.738V.948c0-.656-.184-.948-.74-.948H9.151c-.417 0-.668.304-.668.593 0 .621.946.765 1.043 2.513v3.798c0 .833-.153.984-.487.984-.89 0-3.055-3.211-4.34-6.885C4.45.288 4.198 0 3.527 0H.9C.15 0 0 .347 0 .73c0 .682.89 4.07 4.145 8.551C6.315 12.341 9.37 14 12.153 14c1.669 0 1.875-.368 1.875-1.003v-2.313c0-.737.158-.884.687-.884.39 0 1.057.192 2.615 1.667C19.11 13.216 19.403 14 20.405 14h2.625c.75 0 1.126-.368.91-1.096-.238-.724-1.088-1.775-2.215-3.022-.612-.71-1.53-1.475-1.809-1.858-.389-.491-.278-.71 0-1.147 0 0 3.2-4.426 3.533-5.929h.001Z"/></symbol><symbol id="youtube"><path d="M19.181 5H4.813C3.306 5 2 6.3 2 7.8v8.3C2 17.7 3.306 19 4.813 19h14.368c1.608 0 2.814-1.3 2.814-2.8V7.8c.1-1.5-1.206-2.8-2.814-2.8ZM9.033 15.4V8.6l6.833 3.4-6.833 3.4Z"/></symbol></svg>